<svg width="89" height="79" viewBox="0 0 89 79" fill="none" xmlns="http://www.w3.org/2000/svg">
<path d="M73.9999 29.6001H56.3801L40.1771 1.24259C39.9611 0.865044 39.6491 0.551287 39.2728 0.333083C38.8965 0.114878 38.4692 -2.72764e-05 38.0342 4.85677e-09H27.9363C26.2975 4.85677e-09 25.115 1.56788 25.5652 3.14347L33.124 29.6001H17.2663L10.6063 20.7201C10.1407 20.0988 9.40842 19.7334 8.63296 19.7334H2.46781C0.862929 19.7334 -0.31491 21.2412 0.0751332 22.7983L4.93295 39.4668L0.0751332 56.1354C-0.31491 57.6925 0.862929 59.2003 2.46781 59.2003H8.63296C9.40997 59.2003 10.1407 58.8349 10.6063 58.2136L17.2663 49.3336H33.124L25.5652 75.7887C25.115 77.3643 26.2975 78.9337 27.9363 78.9337H38.0342C38.9191 78.9337 39.7362 78.4589 40.1756 77.6911L56.3801 49.3336H73.9999C79.4497 49.3336 88.8 44.9167 88.8 39.4668C88.8 34.017 79.4497 29.6001 73.9999 29.6001Z" fill="black"/>
</svg>
